# ProBuilder 4.2.3
# https://unity3d.com/unity/features/worldbuilding/probuilder
# 5/8/2020 5:29:48 PM

mtllib ./Bulb_(3).mtl
o Bulb (3)

g Bulb (3)
v -0.05000019 0 0
v -0.05000019 0.07999992 0
v -0.02499962 0 0.04330063
v -0.02499962 0.07999992 0.04330063
v 0.02499962 0 0.04330063
v 0.02499962 0.07999992 0.04330063
v 0.05000019 0 0
v 0.05000019 0.07999992 0
v 0.02499962 0 -0.04330063
v 0.02499962 0.07999992 -0.04330063
v -0.02499962 0 -0.04330063
v -0.02499962 0.07999992 -0.04330063
v 0 0.07999992 0
v 0.03410053 0.02199984 0
v 0.05393028 -0.002545834 0.02162933
v 0.01893044 0.01908541 0.03499985
v 0.05684471 -0.03754568 0.03680038
v 0.03229904 -0.01591444 0.056633
v -0.002700806 -0.0007445812 0.05954742
v -0.002700806 0.03245425 0
v -0.02433205 0.01908541 0.03499985
v -0.03950214 0.02199984 0
v 0.01893044 0.01908541 -0.03499985
v -0.02433205 0.01908541 -0.03499985
v -0.002700806 -0.0007445812 -0.05954742
v 0.05393028 -0.002545834 -0.02162933
v 0.03229904 -0.01591444 -0.056633
v 0.05684471 -0.03754568 -0.03680038
v 0.06729889 -0.03754568 0
v -0.05933189 -0.002545834 0.02162933
v -0.03770065 -0.01591444 0.056633
v -0.06224632 -0.03754568 0.03680038
v -0.002700806 -0.03754568 0.06999969
v 0.03229904 -0.05917692 0.056633
v -0.002700806 -0.07434702 0.05954742
v 0.05393028 -0.07254577 0.02162933
v 0.05393028 -0.07254577 -0.02162933
v 0.03410053 -0.0970912 0
v 0.03229904 -0.05917692 -0.056633
v -0.002700806 -0.03754568 -0.06999969
v -0.002700806 -0.07434702 -0.05954742
v -0.03770065 -0.01591444 -0.056633
v -0.05933189 -0.002545834 -0.02162933
v -0.06224632 -0.03754568 -0.03680038
v -0.03950214 -0.0970912 0
v -0.05933189 -0.07254577 0.02162933
v -0.02433205 -0.09417701 0.03499985
v -0.03770065 -0.05917692 0.056633
v -0.002700806 -0.1075456 0
v 0.01893044 -0.09417701 0.03499985
v -0.02433205 -0.09417701 -0.03499985
v 0.01893044 -0.09417701 -0.03499985
v -0.05933189 -0.07254577 -0.02162933
v -0.03770065 -0.05917692 -0.056633
v -0.0727005 -0.03754568 0

vt -0.025 0
vt -0.025 0.08
vt 0.025 0
vt 0.025 0.08
vt -0.025 0
vt -0.025 0.08
vt 0.025 0
vt 0.025 0.08
vt 0.05 0
vt 0 0
vt 0.025 0.04330127
vt -0.025 0.04330127
vt -0.05 -4.371139E-09
vt -0.025 -0.04330127
vt 0.025 -0.04330127
vt -0.03680118 0
vt -0.05663119 0.02163119
vt -0.02163119 0.035
vt 0.05663119 0.035
vt 0.035 0.02163119
vt 0.02163119 0.05663119
vt 0 0.03680118
vt 0 0.05954555
vt 0.02163119 0.035
vt 0.03680118 0
vt -0.02163119 -0.035
vt 0.02163119 -0.035
vt 0 -0.05954555
vt -0.05663119 -0.02163119
vt -0.02163119 0.05663119
vt -0.035 0.02163119
vt 0.035 0.05663119
vt 0.05663119 0.02163119
vt 0.05954555 0
vt 0.035 -0.02163119
vt 0 -0.03680118
vt -0.05954555 0
vt -0.035 -0.02163119
vt 0.05663119 -0.02163119
vt -0.035 0.05663119
vt -0.05663119 -0.035
vt -0.02163119 -0.05663119
vt 0.02163119 -0.05663119
vt -0.035 -0.05663119
vt 0.035 -0.05663119

vn -1 0 0
vn -0.499993 0 0.8660295
vn 0.499993 0 0.8660295
vn 1 0 0
vn 0.499993 0 -0.8660295
vn -0.499993 0 -0.8660295
vn 0 1 0
vn 0.5831423 0.748769 0.3151031
vn 0.7488135 0.3150989 0.5830875
vn 0.5773757 0.577366 0.5773091
vn 0.315105 0.5831585 0.7487556
vn 0.268033 0.9435222 0.1947413
vn 0 0.7778932 0.6283966
vn 0 0.9341716 0.3568243
vn -0.268033 0.9435222 0.1947413
vn 0.268033 0.9435222 -0.1947413
vn -0.268033 0.9435222 -0.1947413
vn 0 0.9341716 -0.3568243
vn 0 0.7778932 -0.6283966
vn 0.5831423 0.748769 -0.3151031
vn 0.315105 0.5831585 -0.7487556
vn 0.5773757 0.577366 -0.5773091
vn 0.7488135 0.3150989 -0.5830875
vn 0.777873 0.6284215 0
vn 0.9435206 0.1947486 -0.2680334
vn 0.9341736 0.3568187 0
vn 0.9435206 0.1947486 0.2680334
vn -0.5831423 0.748769 0.3151031
vn -0.315105 0.5831585 0.7487556
vn -0.5773757 0.577366 0.5773091
vn -0.7488135 0.3150989 0.5830875
vn 0.1947201 0.2679849 0.9435402
vn 0.6284764 0 0.7778287
vn 0.3567743 0 0.9341906
vn 0.1947212 -0.2679832 0.9435405
vn 0.9435208 -0.1947473 0.2680335
vn 0.9435208 -0.1947473 -0.2680335
vn 0.9341745 -0.3568166 0
vn 0.77787 -0.6284252 0
vn 0.6284764 0 -0.7778287
vn 0.1947201 0.2679849 -0.9435402
vn 0.3567743 0 -0.9341906
vn 0.1947212 -0.2679832 -0.9435405
vn -0.315105 0.5831585 -0.7487556
vn -0.5831423 0.748769 -0.3151031
vn -0.5773757 0.577366 -0.5773091
vn -0.7488135 0.3150989 -0.5830875
vn -0.5831419 -0.7487715 0.315098
vn -0.7488132 -0.3150973 0.5830888
vn -0.5773754 -0.5773636 0.5773119
vn -0.315108 -0.583156 0.7487563
vn -0.2680334 -0.9435234 0.1947351
vn 0 -0.7778932 0.6283966
vn 0 -0.9341736 0.3568187
vn 0.2680334 -0.9435234 0.1947351
vn -0.2680334 -0.9435234 -0.1947351
vn 0.2680334 -0.9435234 -0.1947351
vn 0 -0.9341736 -0.3568187
vn 0 -0.7778932 -0.6283966
vn -0.5831419 -0.7487715 -0.315098
vn -0.315108 -0.583156 -0.7487563
vn -0.5773754 -0.5773636 -0.5773119
vn -0.7488132 -0.3150973 -0.5830888
vn -0.77787 -0.6284252 0
vn -0.9435208 -0.1947473 -0.2680335
vn -0.9341745 -0.3568166 0
vn -0.9435208 -0.1947473 0.2680335
vn -0.1947212 -0.2679832 0.9435405
vn -0.6284764 0 0.7778287
vn -0.3567743 0 0.9341906
vn -0.1947201 0.2679849 0.9435402
vn 0.5831419 -0.7487715 0.315098
vn 0.315108 -0.583156 0.7487563
vn 0.5773754 -0.5773636 0.5773119
vn 0.7488132 -0.3150973 0.5830888
vn 0.315108 -0.583156 -0.7487563
vn 0.5831419 -0.7487715 -0.315098
vn 0.5773754 -0.5773636 -0.5773119
vn 0.7488132 -0.3150973 -0.5830888
vn -0.6284764 0 -0.7778287
vn -0.1947212 -0.2679832 -0.9435405
vn -0.3567743 0 -0.9341906
vn -0.1947201 0.2679849 -0.9435402
vn -0.9435206 0.1947486 0.2680334
vn -0.9435206 0.1947486 -0.2680334
vn -0.9341736 0.3568187 0
vn -0.777873 0.6284215 0

usemtl GradientWhiteLights
f 4/11/7 13/10/7 2/9/7
f 6/12/7 13/10/7 4/11/7
f 8/13/7 13/10/7 6/12/7
f 10/14/7 13/10/7 8/13/7
f 12/15/7 13/10/7 10/14/7
f 2/9/7 13/10/7 12/15/7
f 16/18/8 15/17/8 14/16/8
f 18/17/9 17/16/9 15/18/9
f 16/21/10 18/20/10 15/19/10
f 19/22/11 18/20/11 16/21/11
f 20/10/12 16/18/12 14/16/12
f 21/24/13 19/23/13 16/18/13
f 20/10/14 21/24/14 16/18/14
f 22/25/15 21/24/15 20/10/15
f 23/26/16 20/10/16 14/16/16
f 24/27/17 22/25/17 20/10/17
f 23/26/18 24/27/18 20/10/18
f 25/28/19 24/27/19 23/26/19
f 26/29/20 23/26/20 14/16/20
f 27/31/21 25/22/21 23/30/21
f 26/24/22 27/33/22 23/32/22
f 28/25/23 27/33/23 26/24/23
f 15/18/24 26/24/24 14/23/24
f 29/10/25 28/25/25 26/24/25
f 15/18/26 29/10/26 26/24/26
f 17/16/27 29/10/27 15/18/27
f 30/33/28 21/24/28 22/25/28
f 31/31/29 19/22/29 21/30/29
f 30/24/30 31/33/30 21/32/30
f 32/25/31 31/33/31 30/24/31
f 33/10/32 18/20/32 19/22/32
f 34/35/33 17/34/33 18/20/33
f 33/10/34 34/35/34 18/20/34
f 35/36/35 34/35/35 33/10/35
f 36/26/36 29/10/36 17/16/36
f 37/27/37 28/25/37 29/10/37
f 36/26/38 37/27/38 29/10/38
f 38/28/39 37/27/39 36/26/39
f 39/38/40 27/31/40 28/37/40
f 40/10/41 25/22/41 27/31/41
f 39/38/42 40/10/42 27/31/42
f 41/36/43 40/10/43 39/38/43
f 42/20/44 24/21/44 25/22/44
f 43/39/45 22/25/45 24/27/45
f 42/17/46 43/18/46 24/40/46
f 44/16/47 43/18/47 42/17/47
f 47/18/48 46/17/48 45/16/48
f 48/39/49 32/25/49 46/27/49
f 47/42/50 48/38/50 46/41/50
f 35/36/51 48/38/51 47/42/51
f 49/10/52 47/18/52 45/16/52
f 50/24/53 35/23/53 47/18/53
f 49/10/54 50/24/54 47/18/54
f 38/25/55 50/24/55 49/10/55
f 51/26/56 49/10/56 45/16/56
f 52/27/57 38/25/57 49/10/57
f 51/26/58 52/27/58 49/10/58
f 41/28/59 52/27/59 51/26/59
f 53/29/60 51/26/60 45/16/60
f 54/35/61 41/36/61 51/43/61
f 53/26/62 54/29/62 51/44/62
f 44/16/63 54/29/63 53/26/63
f 46/27/64 53/26/64 45/28/64
f 55/10/65 44/16/65 53/26/65
f 46/27/66 55/10/66 53/26/66
f 32/25/67 55/10/67 46/27/67
f 33/10/68 48/38/68 35/36/68
f 31/31/69 32/37/69 48/38/69
f 33/10/70 31/31/70 48/38/70
f 19/22/71 31/31/71 33/10/71
f 36/33/72 50/24/72 38/25/72
f 34/35/73 35/36/73 50/43/73
f 36/26/74 34/29/74 50/44/74
f 17/16/75 34/29/75 36/26/75
f 39/38/76 52/42/76 41/36/76
f 37/39/77 38/25/77 52/27/77
f 39/39/78 37/27/78 52/45/78
f 28/25/79 37/27/79 39/39/79
f 42/20/80 54/35/80 44/34/80
f 40/10/81 41/36/81 54/35/81
f 42/20/82 40/10/82 54/35/82
f 25/22/83 40/10/83 42/20/83
f 30/24/84 55/10/84 32/25/84
f 43/18/85 44/16/85 55/10/85
f 30/24/86 43/18/86 55/10/86
f 22/23/87 43/18/87 30/24/87
f 4/4/2 2/2/1 1/1/1
f 1/1/1 3/3/2 4/4/2
f 6/4/3 4/2/2 3/1/2
f 3/1/2 5/3/3 6/4/3
f 8/4/4 6/2/3 5/1/3
f 5/1/3 7/3/4 8/4/4
f 10/4/5 8/2/4 7/1/4
f 7/1/4 9/3/5 10/4/5
f 12/8/6 10/6/5 9/5/5
f 9/5/5 11/7/6 12/8/6
f 2/4/1 12/2/6 11/1/6
f 11/1/6 1/3/1 2/4/1

