# ProBuilder 4.2.3
# https://unity3d.com/unity/features/worldbuilding/probuilder
# 5/8/2020 5:29:48 PM

mtllib ./Cable.mtl
o Cable

g Cable
v -0.01 0 0
v -0.01000023 1.1708 0
v -0.004999999 0 0.008660254
v -0.005000114 1.1708 0.008660316
v 0.005 0 0.008660254
v 0.005000114 1.1708 0.008660316
v 0.01 0 -8.742277E-10
v 0.01000023 1.1708 0
v 0.004999999 0 -0.008660254
v 0.005000114 1.1708 -0.008660316
v -0.004999999 0 -0.008660254
v -0.005000114 1.1708 -0.008660316
v 0 0 0
v 0 1.1708 0

vt -0.005 1.467621E-09
vt -0.005000115 1.1708
vt 0.005 1.467621E-09
vt 0.004999997 1.1708
vt -0.004999999 4.615543E-10
vt 0.005 4.615543E-10
vt 0.005000114 1.1708
vt -0.004999998 1.1708
vt -0.01 0
vt 0 0
vt -0.004999999 0.008660254
vt 0.01000023 0
vt 0.005000114 0.008660316
vt -0.005000114 0.008660316
vt 0.01 -8.742277E-10
vt -0.01000023 0
vt 0.004999999 -0.008660254
vt -0.005000114 -0.008660316
vt -0.004999999 -0.008660254
vt 0.005000114 -0.008660316

vn -1 -1.791138E-07 -1.686227E-06
vn -0.4999985 -1.119432E-07 0.8660262
vn 0.5000001 -9.487725E-08 0.8660253
vn 0.4999986 -1.11859E-07 0.8660262
vn 1 -1.787148E-07 1.617401E-06
vn 0.4999985 -1.119349E-07 -0.8660262
vn -0.5 -9.547384E-08 -0.8660254
vn 0 -1 0
vn 0 1 0

usemtl UnlitEdges
f 1/9/8 13/10/8 3/11/8
f 3/11/8 13/10/8 5/13/8
f 5/13/8 13/10/8 7/15/8
f 7/15/8 13/10/8 9/17/8
f 9/17/8 13/10/8 11/19/8
f 11/19/8 13/10/8 1/9/8
f 4/13/9 14/10/9 2/12/9
f 6/14/9 14/10/9 4/13/9
f 8/16/9 14/10/9 6/14/9
f 10/18/9 14/10/9 8/16/9
f 12/20/9 14/10/9 10/18/9
f 2/12/9 14/10/9 12/20/9
f 4/4/2 2/2/1 1/1/1
f 1/1/1 3/3/2 4/4/2
f 6/7/4 4/2/2 3/5/2
f 3/5/2 5/6/3 6/7/4
f 8/7/5 6/8/4 5/1/3
f 5/1/3 7/3/5 8/7/5
f 10/4/6 8/2/5 7/1/5
f 7/1/5 9/3/6 10/4/6
f 12/7/7 10/2/6 9/5/6
f 9/5/6 11/3/7 12/7/7
f 2/7/1 12/8/7 11/5/7
f 11/5/7 1/6/1 2/7/1

usemtl GradientWhiteLights

